# xmcd
#
# Track frame offsets:
#	150
#	18753
#	35906
#	52483
#	70749
#	76764
#	96125
#	112499
#	130894
#	142624
#	160810
#	176988
#	192019
#
# Disc length: 2774 seconds
#
# Revision: 0
# Processed by: cddbd v1.5.2PL0 Copyright (c) Steve Scherf et al.
# Submitted via: audiograbber 1.83.01
#
DISCID=b40ad40d
DTITLE=Kacey Musgraves - Golden Hour
DYEAR=2018
DGENRE=Country
TTITLE0=Slow Burn
TTITLE1=Lonely Weekend
TTITLE2=Butterflies
TTITLE3=Oh, What a World
TTITLE4=Mother
TTITLE5=Love Is a Wild Thing
TTITLE6=Space Cowboy
TTITLE7=Happy and Sad
TTITLE8=Velvet Elvis
TTITLE9=Wonder Woman
TTITLE10=High Horse
TTITLE11=Golden Hour
TTITLE12=Rainbow
EXTD=
EXTT0=
EXTT1=
EXTT2=
EXTT3=
EXTT4=
EXTT5=
EXTT6=
EXTT7=
EXTT8=
EXTT9=
EXTT10=
EXTT11=
EXTT12=
PLAYORDER=
